<?xml version="1.0" encoding="UTF-8"?>
<!DOCTYPE svg PUBLIC "-//W3C//DTD SVG 1.1//EN" "http://www.w3.org/Graphics/SVG/1.1/DTD/svg11.dtd">
<svg xmlns="http://www.w3.org/2000/svg" version="1.1" width="762px" height="654px" style="shape-rendering:geometricPrecision; text-rendering:geometricPrecision; image-rendering:optimizeQuality; fill-rule:evenodd; clip-rule:evenodd" xmlns:xlink="http://www.w3.org/1999/xlink">
<g><path style="opacity:1" fill="#090909" d="M 371.5,35.5 C 371.821,37.0481 372.821,37.7148 374.5,37.5C 424.712,63.439 475.045,89.1057 525.5,114.5C 525.04,190.513 525.707,266.513 527.5,342.5C 528.107,342.376 528.44,342.043 528.5,341.5C 529.492,341.672 530.158,341.338 530.5,340.5C 540.65,334.222 551.316,328.889 562.5,324.5C 563.75,324.577 564.583,325.244 565,326.5C 565.5,334.493 565.666,342.493 565.5,350.5C 545.086,361.562 524.419,372.229 503.5,382.5C 502.094,307.677 501.094,233.01 500.5,158.5C 500.817,149.582 500.484,140.749 499.5,132C 439.186,101.51 379.186,70.5105 319.5,39C 328.76,33.4521 338.26,28.2855 348,23.5C 355.782,27.6408 363.615,31.6408 371.5,35.5 Z"/></g>
<g><path style="opacity:1" fill="#737373" d="M 371.5,35.5 C 372.71,35.9321 373.71,36.5987 374.5,37.5C 372.821,37.7148 371.821,37.0481 371.5,35.5 Z"/></g>
<g><path style="opacity:1" fill="#0f0f0f" d="M 457.5,151.5 C 458.234,152.708 458.567,154.041 458.5,155.5C 451.356,159.908 444.023,164.074 436.5,168C 434.833,168.667 433.167,168.667 431.5,168C 381.745,142.372 331.911,116.872 282,91.5C 281.333,106.5 281.333,121.5 282,136.5C 282.179,139.553 282.679,142.553 283.5,145.5C 343.901,175.783 404.067,206.45 464,237.5C 465.993,292.5 465.993,347.5 464,402.5C 456.26,407.09 448.426,411.424 440.5,415.5C 440.075,361.327 439.075,307.327 437.5,253.5C 375.997,223.165 314.831,192.165 254,160.5C 252.927,130.844 252.261,101.177 252,71.5C 241.294,77.7006 230.461,83.7006 219.5,89.5C 218.671,94.4671 218.171,99.4671 218,104.5C 217.333,130.5 217.333,156.5 218,182.5C 279.209,213.771 340.542,244.771 402,275.5C 402.95,328.519 402.617,381.519 401,434.5C 393.078,439.546 384.911,444.213 376.5,448.5C 292.616,406.059 208.95,363.392 125.5,320.5C 125.5,319.833 125.5,319.167 125.5,318.5C 133.717,312.391 142.717,307.891 152.5,305C 226.224,342.195 299.891,379.362 373.5,416.5C 373.56,417.043 373.893,417.376 374.5,417.5C 376.706,405.06 377.039,392.56 375.5,380C 375.431,378.014 374.765,376.514 373.5,375.5C 344.737,361.618 316.07,347.452 287.5,333C 255.185,316.843 223.185,300.177 191.5,283C 200.167,278.333 208.833,273.667 217.5,269C 219.913,268.516 222.246,268.85 224.5,270C 274.255,295.628 324.089,321.128 374,346.5C 374.167,338.833 374.333,331.167 374.5,323.5C 374.702,312.761 374.035,302.094 372.5,291.5C 312.098,260.883 251.932,229.883 192,198.5C 190.863,177.874 190.363,157.207 190.5,136.5C 190.363,115.793 190.863,95.126 192,74.5C 212.858,62.4027 234.191,51.0694 256,40.5C 263.422,44.4611 270.922,48.2944 278.5,52C 279.727,54.7359 280.727,57.5692 281.5,60.5C 340.228,90.8629 398.895,121.196 457.5,151.5 Z"/></g>
<g><path style="opacity:1" fill="#747474" d="M 457.5,151.5 C 462.053,152.316 462.387,153.649 458.5,155.5C 458.567,154.041 458.234,152.708 457.5,151.5 Z"/></g>
<g><path style="opacity:1" fill="#616161" d="M 525.5,114.5 C 527.109,173.992 527.776,233.659 527.5,293.5C 527.17,309.675 527.504,325.675 528.5,341.5C 528.44,342.043 528.107,342.376 527.5,342.5C 525.707,266.513 525.04,190.513 525.5,114.5 Z"/></g>
<g><path style="opacity:1" fill="#9d9d9d" d="M 125.5,318.5 C 125.5,319.167 125.5,319.833 125.5,320.5C 122.833,319.833 122.833,319.167 125.5,318.5 Z"/></g>
<g><path style="opacity:1" fill="#585859" d="M 500.5,158.5 C 501.094,233.01 502.094,307.677 503.5,382.5C 503.217,383.289 502.717,383.956 502,384.5C 501.667,377.5 501.333,370.5 501,363.5C 500.5,295.167 500.333,226.834 500.5,158.5 Z"/></g>
<g><path style="opacity:1" fill="#b1b1b1" d="M 527.5,293.5 C 527.838,309.36 528.838,325.027 530.5,340.5C 530.158,341.338 529.492,341.672 528.5,341.5C 527.504,325.675 527.17,309.675 527.5,293.5 Z"/></g>
<g><path style="opacity:1" fill="#848484" d="M 565.5,350.5 C 565.666,342.493 565.5,334.493 565,326.5C 564.583,325.244 563.75,324.577 562.5,324.5C 563.315,323.163 564.482,322.163 566,321.5C 568.15,331.355 567.983,341.022 565.5,350.5 Z"/></g>
<g><path style="opacity:1" fill="#9d9c9d" d="M 437.5,253.5 C 439.075,307.327 440.075,361.327 440.5,415.5C 440.217,416.289 439.717,416.956 439,417.5C 437.73,362.841 437.23,308.174 437.5,253.5 Z"/></g>
<g><path style="opacity:1" fill="#aaa9a9" d="M 373.5,375.5 C 374.765,376.514 375.431,378.014 375.5,380C 377.039,392.56 376.706,405.06 374.5,417.5C 373.893,417.376 373.56,417.043 373.5,416.5C 374.76,402.78 374.76,389.113 373.5,375.5 Z"/></g>
<g><path style="opacity:1" fill="#111112" d="M 177.5,509.5 C 196.948,507.278 214.615,511.778 230.5,523C 233.192,525.557 235.525,528.391 237.5,531.5C 232.371,537.64 226.538,542.974 220,547.5C 205.739,533.135 189.573,530.635 171.5,540C 155.91,554.472 153.41,570.972 164,589.5C 176.319,604.27 191.153,607.437 208.5,599C 212.024,595.975 215.691,593.142 219.5,590.5C 224.683,594.26 229.683,598.26 234.5,602.5C 235.128,607.124 233.462,610.957 229.5,614C 203.185,632.303 177.185,631.97 151.5,613C 129.506,589.707 126.006,563.874 141,535.5C 150.107,522.53 162.274,513.864 177.5,509.5 Z"/></g>
<g><path style="opacity:1" fill="#111112" d="M 43.5,599.5 C 43.8212,601.048 44.8212,601.715 46.5,601.5C 57.6752,606.806 68.8419,606.806 80,601.5C 84.8856,595.572 84.3856,590.072 78.5,585C 67.301,581.031 55.9677,577.364 44.5,574C 28.3031,567.104 21.3031,554.938 23.5,537.5C 24.9238,535.485 25.5905,533.152 25.5,530.5C 27.4338,525.052 30.7672,520.552 35.5,517C 56.2051,506.951 76.8718,507.284 97.5,518C 100.463,519.961 103.129,522.294 105.5,525C 101.411,531.093 96.578,536.593 91,541.5C 79.464,532.6 66.6307,530.1 52.5,534C 45.8333,539.333 45.8333,544.667 52.5,550C 64.7267,554.612 77.06,558.946 89.5,563C 106.649,571.134 112.483,584.3 107,602.5C 102.568,614.598 94.0677,622.098 81.5,625C 60.0512,630.415 40.3845,626.749 22.5,614C 20.5951,612.185 18.9284,610.185 17.5,608C 22.0201,601.98 27.3534,596.813 33.5,592.5C 36.5127,595.336 39.846,597.669 43.5,599.5 Z"/></g>
<g><path style="opacity:1" fill="#bfbfbf" d="M 654.5,511.5 C 676.327,510.503 698.327,510.169 720.5,510.5C 720.822,516.358 720.489,522.025 719.5,527.5C 719.5,522.167 719.5,516.833 719.5,511.5C 697.833,511.5 676.167,511.5 654.5,511.5 Z"/></g>
<g><path style="opacity:1" fill="#ababac" d="M 606.5,514.5 C 598.231,512.53 589.565,511.864 580.5,512.5C 589.287,510.234 598.287,509.901 607.5,511.5C 607.737,512.791 607.404,513.791 606.5,514.5 Z"/></g>
<g><path style="opacity:1" fill="#818181" d="M 266.5,511.5 C 275.167,511.5 283.833,511.5 292.5,511.5C 292.5,549.167 292.5,586.833 292.5,624.5C 283.833,624.5 275.167,624.5 266.5,624.5C 266.5,586.833 266.5,549.167 266.5,511.5 Z"/></g>
<g><path style="opacity:1" fill="#050605" d="M 267.5,512.5 C 275.5,512.5 283.5,512.5 291.5,512.5C 291.5,549.5 291.5,586.5 291.5,623.5C 283.5,623.5 275.5,623.5 267.5,623.5C 267.5,586.5 267.5,549.5 267.5,512.5 Z"/></g>
<g><path style="opacity:1" fill="#838384" d="M 438.5,511.5 C 447.5,511.5 456.5,511.5 465.5,511.5C 465.5,549.167 465.5,586.833 465.5,624.5C 456.5,624.5 447.5,624.5 438.5,624.5C 438.5,586.833 438.5,549.167 438.5,511.5 Z"/></g>
<g><path style="opacity:1" fill="#090a0a" d="M 439.5,512.5 C 447.833,512.5 456.167,512.5 464.5,512.5C 464.5,549.5 464.5,586.5 464.5,623.5C 456.167,623.5 447.833,623.5 439.5,623.5C 439.5,586.5 439.5,549.5 439.5,512.5 Z"/></g>
<g><path style="opacity:1" fill="#111111" d="M 580.5,512.5 C 589.565,511.864 598.231,512.53 606.5,514.5C 590.92,550.567 575.92,586.9 561.5,623.5C 553.5,624.833 545.5,624.833 537.5,623.5C 523.812,586.435 509.145,549.768 493.5,513.5C 502.758,511.393 512.091,511.059 521.5,512.5C 530.444,538.385 539.944,564.051 550,589.5C 559.685,563.606 569.852,537.94 580.5,512.5 Z"/></g>
<g><path style="opacity:1" fill="#010102" d="M 657.5,533.5 C 657.5,535.167 657.5,536.833 657.5,538.5C 656.51,544.645 656.177,550.978 656.5,557.5C 675.833,557.5 695.167,557.5 714.5,557.5C 714.5,564.167 714.5,570.833 714.5,577.5C 695.167,577.5 675.833,577.5 656.5,577.5C 656.5,586.167 656.5,594.833 656.5,603.5C 677.5,603.5 698.5,603.5 719.5,603.5C 719.5,610.167 719.5,616.833 719.5,623.5C 690.833,623.5 662.167,623.5 633.5,623.5C 633.5,586.5 633.5,549.5 633.5,512.5C 661.833,512.5 690.167,512.5 718.5,512.5C 718.5,519.167 718.5,525.833 718.5,532.5C 697.993,532.17 677.66,532.503 657.5,533.5 Z"/></g>
<g><path style="opacity:1" fill="#5d5d5e" d="M 742.5,523.5 C 744.292,522.691 746.292,522.191 748.5,522C 747.78,519.878 746.613,519.378 745,520.5C 744.505,518.527 744.338,516.527 744.5,514.5C 745.833,514.5 747.167,514.5 748.5,514.5C 748.338,516.527 748.505,518.527 749,520.5C 749.414,520.957 749.914,521.291 750.5,521.5C 751.647,519.235 751.814,516.902 751,514.5C 744.613,511.785 741.113,513.785 740.5,520.5C 738.893,515.385 740.727,512.052 746,510.5C 753.123,511.743 755.29,515.743 752.5,522.5C 749.365,524.709 746.032,525.043 742.5,523.5 Z"/></g>
<g><path style="opacity:0.4" fill="#d8d8d9" d="M 742.5,523.5 C 741.599,522.71 740.932,521.71 740.5,520.5C 741.113,513.785 744.613,511.785 751,514.5C 751.814,516.902 751.647,519.235 750.5,521.5C 749.914,521.291 749.414,520.957 749,520.5C 748.505,518.527 748.338,516.527 748.5,514.5C 747.167,514.5 745.833,514.5 744.5,514.5C 744.338,516.527 744.505,518.527 745,520.5C 746.613,519.378 747.78,519.878 748.5,522C 746.292,522.191 744.292,522.691 742.5,523.5 Z"/></g>
<g><path style="opacity:1" fill="#5d5d5e" d="M 25.5,530.5 C 25.5905,533.152 24.9238,535.485 23.5,537.5C 23.4095,534.848 24.0762,532.515 25.5,530.5 Z"/></g>
<g><path style="opacity:1" fill="#c1c1c2" d="M 657.5,533.5 C 657.833,533.5 658.167,533.5 658.5,533.5C 658.5,540.833 658.5,548.167 658.5,555.5C 673.01,555.171 687.343,555.504 701.5,556.5C 686.833,556.5 672.167,556.5 657.5,556.5C 657.5,550.5 657.5,544.5 657.5,538.5C 657.5,536.833 657.5,535.167 657.5,533.5 Z"/></g>
<g><path style="opacity:1" fill="#cbcbcb" d="M 699.5,578.5 C 686.01,579.496 672.344,579.829 658.5,579.5C 658.5,586.833 658.5,594.167 658.5,601.5C 673.676,601.171 688.676,601.504 703.5,602.5C 688.167,602.5 672.833,602.5 657.5,602.5C 657.5,594.5 657.5,586.5 657.5,578.5C 671.5,578.5 685.5,578.5 699.5,578.5 Z"/></g>
<g><path style="opacity:1" fill="#767677" d="M 43.5,599.5 C 44.7095,599.932 45.7095,600.599 46.5,601.5C 44.8212,601.715 43.8212,601.048 43.5,599.5 Z"/></g>
<g><path style="opacity:1" fill="#bcbcbd" d="M 353.5,601.5 C 372.167,601.5 390.833,601.5 409.5,601.5C 409.822,607.358 409.489,613.025 408.5,618.5C 408.5,613.167 408.5,607.833 408.5,602.5C 389.992,602.83 371.659,602.497 353.5,601.5 Z"/></g>
<g><path style="opacity:1" fill="#838383" d="M 353.5,601.5 C 371.659,602.497 389.992,602.83 408.5,602.5C 408.5,607.833 408.5,613.167 408.5,618.5C 408.5,620.5 408.5,622.5 408.5,624.5C 381.5,624.5 354.5,624.5 327.5,624.5C 327.5,586.833 327.5,549.167 327.5,511.5C 335.833,511.5 344.167,511.5 352.5,511.5C 353.271,541.494 353.604,571.494 353.5,601.5 Z"/></g>
<g><path style="opacity:1" fill="#000102" d="M 328.5,512.5 C 336.167,512.5 343.833,512.5 351.5,512.5C 351.5,542.833 351.5,573.167 351.5,603.5C 370.167,603.5 388.833,603.5 407.5,603.5C 407.5,610.167 407.5,616.833 407.5,623.5C 381.167,623.5 354.833,623.5 328.5,623.5C 328.5,586.5 328.5,549.5 328.5,512.5 Z"/></g>
<g><path style="opacity:1" fill="#868787" d="M 654.5,511.5 C 676.167,511.5 697.833,511.5 719.5,511.5C 719.5,516.833 719.5,522.167 719.5,527.5C 719.5,529.5 719.5,531.5 719.5,533.5C 699.167,533.5 678.833,533.5 658.5,533.5C 658.167,533.5 657.833,533.5 657.5,533.5C 677.66,532.503 697.993,532.17 718.5,532.5C 718.5,525.833 718.5,519.167 718.5,512.5C 690.167,512.5 661.833,512.5 633.5,512.5C 633.5,549.5 633.5,586.5 633.5,623.5C 662.167,623.5 690.833,623.5 719.5,623.5C 719.5,616.833 719.5,610.167 719.5,603.5C 698.5,603.5 677.5,603.5 656.5,603.5C 656.5,594.833 656.5,586.167 656.5,577.5C 675.833,577.5 695.167,577.5 714.5,577.5C 714.5,570.833 714.5,564.167 714.5,557.5C 695.167,557.5 675.833,557.5 656.5,557.5C 656.177,550.978 656.51,544.645 657.5,538.5C 657.5,544.5 657.5,550.5 657.5,556.5C 672.167,556.5 686.833,556.5 701.5,556.5C 706.167,556.5 710.833,556.5 715.5,556.5C 715.5,563.833 715.5,571.167 715.5,578.5C 710.167,578.5 704.833,578.5 699.5,578.5C 685.5,578.5 671.5,578.5 657.5,578.5C 657.5,586.5 657.5,594.5 657.5,602.5C 672.833,602.5 688.167,602.5 703.5,602.5C 709.167,602.5 714.833,602.5 720.5,602.5C 720.5,604.833 720.5,607.167 720.5,609.5C 720.5,614.5 720.5,619.5 720.5,624.5C 699.5,624.5 678.5,624.5 657.5,624.5C 649.167,624.5 640.833,624.5 632.5,624.5C 632.5,586.833 632.5,549.167 632.5,511.5C 639.833,511.5 647.167,511.5 654.5,511.5 Z"/></g>
<g><path style="opacity:1" fill="#cdcdcd" d="M 720.5,609.5 C 721.488,614.64 721.821,619.974 721.5,625.5C 699.993,625.831 678.66,625.497 657.5,624.5C 678.5,624.5 699.5,624.5 720.5,624.5C 720.5,619.5 720.5,614.5 720.5,609.5 Z"/></g>
</svg>
