<?xml version="1.0" encoding="UTF-8"?>
<!DOCTYPE svg PUBLIC "-//W3C//DTD SVG 1.1//EN" "http://www.w3.org/Graphics/SVG/1.1/DTD/svg11.dtd">
<svg xmlns="http://www.w3.org/2000/svg" version="1.1" width="1024px" height="1024px" style="shape-rendering:geometricPrecision; text-rendering:geometricPrecision; image-rendering:optimizeQuality; fill-rule:evenodd; clip-rule:evenodd" xmlns:xlink="http://www.w3.org/1999/xlink">
<g><path style="opacity:1" fill="#fcfcfc" d="M -0.5,-0.5 C 340.833,-0.5 682.167,-0.5 1023.5,-0.5C 1023.5,340.833 1023.5,682.167 1023.5,1023.5C 682.167,1023.5 340.833,1023.5 -0.5,1023.5C -0.5,682.167 -0.5,340.833 -0.5,-0.5 Z"/></g>
<g><path style="opacity:1" fill="#030303" d="M 667.5,297.5 C 667.167,373.503 667.5,449.503 668.5,525.5C 669.107,525.376 669.44,525.043 669.5,524.5C 681.704,517.898 694.037,511.565 706.5,505.5C 707.493,514.318 707.827,523.318 707.5,532.5C 686.369,543.232 665.369,554.232 644.5,565.5C 643.833,535.833 643.167,506.167 642.5,476.5C 642.667,422.499 642.5,368.499 642,314.5C 581.599,284.05 521.432,253.216 461.5,222C 470.672,216.58 480.006,211.413 489.5,206.5C 548.547,237.357 607.881,267.691 667.5,297.5 Z"/></g>
<g><path style="opacity:1" fill="#050505" d="M 581.5,598.5 C 580.833,544.5 580.167,490.5 579.5,436.5C 518.037,405.602 456.704,374.435 395.5,343C 394.671,313.238 394.171,283.405 394,253.5C 382.42,259.706 370.92,266.04 359.5,272.5C 358.333,303.495 358.167,334.495 359,365.5C 420.393,396.946 481.893,427.946 543.5,458.5C 543.667,511.168 543.5,563.834 543,616.5C 534.962,621.367 526.795,626.033 518.5,630.5C 433.855,588.178 349.522,545.344 265.5,502C 273.578,496.933 281.911,492.266 290.5,488C 291.833,487.333 293.167,487.333 294.5,488C 367.878,525.689 441.544,562.856 515.5,599.5C 515.56,600.043 515.893,600.376 516.5,600.5C 517.826,586.339 517.826,572.339 516.5,558.5C 455.184,528.176 394.184,497.342 333.5,466C 341.672,461.08 350.005,456.413 358.5,452C 360.167,451.333 361.833,451.333 363.5,452C 414.443,477.721 465.276,503.554 516,529.5C 516.833,511.158 516.666,492.824 515.5,474.5C 454.432,443.55 393.598,412.216 333,380.5C 332.333,339.5 332.333,298.5 333,257.5C 354.263,245.784 375.763,234.451 397.5,223.5C 405.009,227.755 412.676,231.755 420.5,235.5C 421.208,238.366 421.875,241.2 422.5,244C 482.5,274.667 542.5,305.333 602.5,336C 594.5,340.667 586.5,345.333 578.5,350C 576.5,350.667 574.5,350.667 572.5,350C 522.745,324.372 472.911,298.872 423,273.5C 422.167,291.509 422.334,309.509 423.5,327.5C 484.167,358.5 544.833,389.5 605.5,420.5C 606.833,475.167 606.833,529.833 605.5,584.5C 597.437,589.193 589.437,593.86 581.5,598.5 Z"/></g>
<g><path style="opacity:1" fill="#2b2b2b" d="M 667.5,297.5 C 668.167,373.167 668.833,448.833 669.5,524.5C 669.44,525.043 669.107,525.376 668.5,525.5C 667.5,449.503 667.167,373.503 667.5,297.5 Z"/></g>
<g><path style="opacity:1" fill="#616161" d="M 706.5,505.5 C 706.56,504.957 706.893,504.624 707.5,504.5C 708.822,513.992 708.822,523.325 707.5,532.5C 707.827,523.318 707.493,514.318 706.5,505.5 Z"/></g>
<g><path style="opacity:1" fill="#1e1f20" d="M 642.5,476.5 C 643.167,506.167 643.833,535.833 644.5,565.5C 644.44,566.043 644.107,566.376 643.5,566.5C 642.5,536.507 642.167,506.507 642.5,476.5 Z"/></g>
<g><path style="opacity:1" fill="#929193" d="M 579.5,436.5 C 580.167,490.5 580.833,544.5 581.5,598.5C 581.44,599.043 581.107,599.376 580.5,599.5C 579.5,545.171 579.167,490.837 579.5,436.5 Z"/></g>
<g><path style="opacity:1" fill="#a3a2a2" d="M 516.5,558.5 C 517.826,572.339 517.826,586.339 516.5,600.5C 515.893,600.376 515.56,600.043 515.5,599.5C 516.496,586.01 516.829,572.344 516.5,558.5 Z"/></g>
<g><path style="opacity:1" fill="#050506" d="M 194.5,692.5 C 208.738,691.207 222.405,693.373 235.5,699C 239.619,701.29 243.286,704.124 246.5,707.5C 242.177,713.155 237.51,718.488 232.5,723.5C 220.651,714.449 207.651,711.949 193.5,716C 186.833,721.667 186.833,727.333 193.5,733C 206.822,737.665 220.155,742.332 233.5,747C 247.753,754.73 252.919,766.564 249,782.5C 244.055,797.102 233.888,805.602 218.5,808C 201.113,811.564 184.78,808.898 169.5,800C 165.686,797.353 162.353,794.187 159.5,790.5C 164.196,784.97 169.363,779.97 175,775.5C 181.748,781.625 189.581,785.792 198.5,788C 205.668,788.988 212.668,788.322 219.5,786C 226.559,780.602 227.226,774.602 221.5,768C 217.952,766.059 214.286,764.393 210.5,763C 200.452,761.206 190.785,758.206 181.5,754C 168.674,746.513 163.174,735.347 165,720.5C 166.606,710.559 171.772,703.059 180.5,698C 185.265,696.155 189.932,694.321 194.5,692.5 Z"/></g>
<g><path style="opacity:1" fill="#050506" d="M 320.5,692.5 C 339.337,690.395 356.337,694.895 371.5,706C 374.219,708.382 376.553,711.049 378.5,714C 373.346,719.651 367.679,724.817 361.5,729.5C 346.946,714.603 330.612,712.103 312.5,722C 296.32,737.306 294.153,754.472 306,773.5C 319.097,787.9 334.264,790.4 351.5,781C 354.678,778.486 357.844,775.986 361,773.5C 366.612,777.441 371.945,781.774 377,786.5C 375.102,791.755 371.602,795.922 366.5,799C 345.774,811.792 324.441,812.792 302.5,802C 281.085,787.662 271.585,767.495 274,741.5C 279.454,715.548 294.954,699.215 320.5,692.5 Z"/></g>
<g><path style="opacity:1" fill="#bdbdbf" d="M 722.5,694.5 C 731.342,693.178 740.342,693.178 749.5,694.5C 749.376,695.107 749.043,695.44 748.5,695.5C 740.016,694.507 731.349,694.174 722.5,694.5 Z"/></g>
<g><path style="opacity:1" fill="#060606" d="M 408.5,694.5 C 416.833,694.5 425.167,694.5 433.5,694.5C 433.5,731.833 433.5,769.167 433.5,806.5C 425.167,806.5 416.833,806.5 408.5,806.5C 408.5,769.167 408.5,731.833 408.5,694.5 Z"/></g>
<g><path style="opacity:1" fill="#010102" d="M 493.5,694.5 C 493.5,724.833 493.5,755.167 493.5,785.5C 512.167,785.5 530.833,785.5 549.5,785.5C 549.5,792.5 549.5,799.5 549.5,806.5C 522.833,806.5 496.167,806.5 469.5,806.5C 469.5,769.167 469.5,731.833 469.5,694.5C 477.5,694.5 485.5,694.5 493.5,694.5 Z"/></g>
<g><path style="opacity:1" fill="#0a0a0b" d="M 580.5,694.5 C 589.167,694.5 597.833,694.5 606.5,694.5C 606.5,731.833 606.5,769.167 606.5,806.5C 597.833,806.5 589.167,806.5 580.5,806.5C 580.5,769.167 580.5,731.833 580.5,694.5 Z"/></g>
<g><path style="opacity:1" fill="#050505" d="M 722.5,694.5 C 731.349,694.174 740.016,694.507 748.5,695.5C 732.335,732.163 717.001,769.163 702.5,806.5C 694.833,806.5 687.167,806.5 679.5,806.5C 665.684,769.195 651.017,732.195 635.5,695.5C 644.475,694.502 653.475,694.168 662.5,694.5C 671.569,721.038 681.235,747.371 691.5,773.5C 701.567,747.038 711.9,720.705 722.5,694.5 Z"/></g>
<g><path style="opacity:1" fill="#010102" d="M 774.5,694.5 C 803.167,694.5 831.833,694.5 860.5,694.5C 860.5,701.5 860.5,708.5 860.5,715.5C 840.167,715.5 819.833,715.5 799.5,715.5C 798.508,723.316 798.174,731.316 798.5,739.5C 817.833,739.5 837.167,739.5 856.5,739.5C 856.5,746.5 856.5,753.5 856.5,760.5C 837.167,760.5 817.833,760.5 798.5,760.5C 798.5,768.833 798.5,777.167 798.5,785.5C 819.5,785.5 840.5,785.5 861.5,785.5C 861.5,792.5 861.5,799.5 861.5,806.5C 832.5,806.5 803.5,806.5 774.5,806.5C 774.5,769.167 774.5,731.833 774.5,694.5 Z"/></g>
<g><path style="opacity:1" fill="#373738" d="M 883.5,704.5 C 880.525,700.529 881.191,697.029 885.5,694C 892.175,693.011 895.342,695.844 895,702.5C 894.535,703.931 893.701,705.097 892.5,706C 889.833,706.667 887.167,706.667 884.5,706C 883.944,705.617 883.611,705.117 883.5,704.5 Z"/></g>
<g><path style="opacity:1" fill="#e9e9ea" d="M 885.5,704.5 C 886.158,703.602 886.824,702.602 887.5,701.5C 891.536,705.31 890.869,706.31 885.5,704.5 Z"/></g>
<g><path style="opacity:1" fill="#eaeaeb" d="M 885.5,704.5 C 884.833,704.5 884.167,704.5 883.5,704.5C 881.321,699.348 882.988,696.348 888.5,695.5C 893.151,696.193 894.651,698.859 893,703.5C 892.333,704.833 891.667,704.833 891,703.5C 889.764,701.693 889.43,699.693 890,697.5C 888.667,696.167 887.333,696.167 886,697.5C 885.503,699.81 885.337,702.143 885.5,704.5 Z"/></g>
<g><path style="opacity:1" fill="#848384" d="M 774.5,694.5 C 803.329,693.502 832.329,693.169 861.5,693.5C 861.825,701.019 861.492,708.352 860.5,715.5C 860.5,708.5 860.5,701.5 860.5,694.5C 831.833,694.5 803.167,694.5 774.5,694.5 Z"/></g>
<g><path style="opacity:1" fill="#888789" d="M 799.5,715.5 C 799.5,723.167 799.5,730.833 799.5,738.5C 818.674,738.17 837.674,738.503 856.5,739.5C 837.167,739.5 817.833,739.5 798.5,739.5C 798.174,731.316 798.508,723.316 799.5,715.5 Z"/></g>
<g><path style="opacity:1" fill="#757576" d="M 493.5,694.5 C 494.498,724.329 494.831,754.329 494.5,784.5C 513.167,784.5 531.833,784.5 550.5,784.5C 550.825,792.019 550.492,799.352 549.5,806.5C 549.5,799.5 549.5,792.5 549.5,785.5C 530.833,785.5 512.167,785.5 493.5,785.5C 493.5,755.167 493.5,724.833 493.5,694.5 Z"/></g>
<g><path style="opacity:1" fill="#9b9c9c" d="M 856.5,760.5 C 837.674,761.497 818.674,761.83 799.5,761.5C 799.5,769.167 799.5,776.833 799.5,784.5C 820.34,784.169 841.007,784.503 861.5,785.5C 840.5,785.5 819.5,785.5 798.5,785.5C 798.5,777.167 798.5,768.833 798.5,760.5C 817.833,760.5 837.167,760.5 856.5,760.5 Z"/></g>
<g><path style="opacity:1" fill="#a1a2a2" d="M 861.5,785.5 C 862.492,792.648 862.825,799.981 862.5,807.5C 832.995,807.831 803.662,807.498 774.5,806.5C 803.5,806.5 832.5,806.5 861.5,806.5C 861.5,799.5 861.5,792.5 861.5,785.5 Z"/></g>
</svg>
